<?xml version="1.0" encoding="UTF-8" ?>
<svg xmlns="http://www.w3.org/2000/svg" viewBox="0 -2370 4225 2650" version="1.1">
<g transform="matrix(1.25,0,0,-1.25,0,262.0125)">
<path fill="#bc1929" d="m 1610.93,140.27 c 564.6,-23.02 1431.9,-246.161 1516.36,489.371 70.06,610.189 -476.5,447.679 -1025.03,634.549 -158.75,54.07 -360.09,149.94 -335.81,313.15 28.23,189.9 220.69,268.37 405.92,288.75 368.58,40.56 790.18,-89.8 1002.05,-43.72 161.78,35.17 227.01,110.31 192.79,159.74 -23.65,34.14 -143.49,33.15 -231.33,36.4 -60.75,-3.31 -643.17,52.99 -740.73,65.15 -170.64,21.28 -386.92,20.19 -526.82,-41.89 -37.71,-16.74 -314.87,-163.99 -314.92,-443.83 -0.06,-297.8 440.34,-467.24 1040.93,-564.87 530.37,-86.211 430.35,-502.871 207.39,-701.691 C 2605.01,155.969 1950.32,256.84 1683.01,270.871 1135.89,299.59 266.301,265.43 50.1758,123.809 -26.1445,73.8008 -9.62891,-15.3086 60.918,2.25 650.051,149.059 817.129,172.609 1610.93,140.27" />
<path fill="#ed8888" d="m 3204.44,1986.91 c 0,0 -47.4,-20.65 -308.07,15.34 -208.05,28.73 -660.81,73.98 -834.55,52.08 -141.2,-17.78 -254.48,-65.26 -339.68,-160.06 -149.39,-166.22 -124.67,-316.74 -124.67,-316.74 0,0 83.25,392.15 465.23,426.78 212.51,19.28 656.16,-22.76 813.29,-46.12 276.5,-41.13 328.45,28.72 328.45,28.72" />
<path fill="#ed8888" d="m 73.4531,86.2891 c 0,0 134.2739,80.6599 790.1679,115.2419 550.159,29 697.849,-4.293 1378.389,-47.031 516.1,-32.449 620.03,182.09 620.03,182.09 0,0 -141.78,-189.488 -693.39,-135.18 -467.38,46.02 -984.04,62.379 -1427.709,32.231 C 178.324,195.391 73.4531,86.2891 73.4531,86.2891" />
<path fill="#ed8888" d="m 1915.1,1272.62 c -223.06,102.45 -195.86,248.01 -195.86,248.01 0,0 6.03,-164.37 347.26,-273.3 332.49,-106.13 682.22,-118.72 819.43,-191.13 190.12,-100.309 185.65,-204.938 185.65,-204.938 0,0 -40.95,116.418 -243.89,185.898 -200.38,68.58 -573.73,79.82 -912.59,235.46" />
</g>
</svg>
