<svg xmlns="http://www.w3.org/2000/svg" version="1.1" viewBox="0 0 50 50">
	<line x1="0" y1="-4.50" x2="50" y2="0.50" stroke="#fafafa" stroke-width="0.5" />
	<line x1="0" y1="0.50" x2="50" y2="5.50" stroke="#fafafa" stroke-width="0.5" />
	<line x1="0" y1="5.50" x2="50" y2="10.50" stroke="#fafafa" stroke-width="0.5" />
	<line x1="0" y1="10.50" x2="50" y2="15.50" stroke="#fafafa" stroke-width="0.5" />
	<line x1="0" y1="15.50" x2="50" y2="20.50" stroke="#fafafa" stroke-width="0.5" />
	<line x1="0" y1="20.50" x2="50" y2="25.50" stroke="#fafafa" stroke-width="0.5" />
	<line x1="0" y1="25.50" x2="50" y2="30.50" stroke="#fafafa" stroke-width="0.5" />
	<line x1="0" y1="30.50" x2="50" y2="35.50" stroke="#fafafa" stroke-width="0.5" />
	<line x1="0" y1="35.50" x2="50" y2="40.50" stroke="#fafafa" stroke-width="0.5" />
	<line x1="0" y1="40.50" x2="50" y2="45.50" stroke="#fafafa" stroke-width="0.5" />
	<line x1="0" y1="45.50" x2="50" y2="50.50" stroke="#fafafa" stroke-width="0.5" />

	<line y1="0" x2="-4.50" y2="50" x1="0.50" stroke="#fafafa" stroke-width="0.5" />
	<line y1="0" x2="0.50" y2="50" x1="5.50" stroke="#fafafa" stroke-width="0.5" />
	<line y1="0" x2="5.50" y2="50" x1="10.50" stroke="#fafafa" stroke-width="0.5" />
	<line y1="0" x2="10.50" y2="50" x1="15.50" stroke="#fafafa" stroke-width="0.5" />
	<line y1="0" x2="15.50" y2="50" x1="20.50" stroke="#fafafa" stroke-width="0.5" />
	<line y1="0" x2="20.50" y2="50" x1="25.50" stroke="#fafafa" stroke-width="0.5" />
	<line y1="0" x2="25.50" y2="50" x1="30.50" stroke="#fafafa" stroke-width="0.5" />
	<line y1="0" x2="30.50" y2="50" x1="35.50" stroke="#fafafa" stroke-width="0.5" />
	<line y1="0" x2="35.50" y2="50" x1="40.50" stroke="#fafafa" stroke-width="0.5" />
	<line y1="0" x2="40.50" y2="50" x1="45.50" stroke="#fafafa" stroke-width="0.5" />
	<line y1="0" x2="45.50" y2="50" x1="50.50" stroke="#fafafa" stroke-width="0.5" />
</svg>
